<svg xmlns="http://www.w3.org/2000/svg" viewBox="0 0 100 100" fill="none">
  <g transform="translate(50,50)">
    <g transform="rotate(0)"><rect x="-5" y="-45" width="10" height="45" rx="5" fill="#D97757"/></g>
    <g transform="rotate(30)"><rect x="-5" y="-45" width="10" height="45" rx="5" fill="#D97757"/></g>
    <g transform="rotate(60)"><rect x="-5" y="-45" width="10" height="45" rx="5" fill="#D97757"/></g>
    <g transform="rotate(90)"><rect x="-5" y="-45" width="10" height="45" rx="5" fill="#D97757"/></g>
    <g transform="rotate(120)"><rect x="-5" y="-45" width="10" height="45" rx="5" fill="#D97757"/></g>
    <g transform="rotate(150)"><rect x="-5" y="-45" width="10" height="45" rx="5" fill="#D97757"/></g>
    <g transform="rotate(180)"><rect x="-5" y="-45" width="10" height="45" rx="5" fill="#D97757"/></g>
    <g transform="rotate(210)"><rect x="-5" y="-45" width="10" height="45" rx="5" fill="#D97757"/></g>
    <g transform="rotate(240)"><rect x="-5" y="-45" width="10" height="45" rx="5" fill="#D97757"/></g>
    <g transform="rotate(270)"><rect x="-5" y="-45" width="10" height="45" rx="5" fill="#D97757"/></g>
    <g transform="rotate(300)"><rect x="-5" y="-45" width="10" height="45" rx="5" fill="#D97757"/></g>
    <g transform="rotate(330)"><rect x="-5" y="-45" width="10" height="45" rx="5" fill="#D97757"/></g>
  </g>
</svg>
